<svg width="19" height="19" viewBox="0 0 19 19" xmlns="http://www.w3.org/2000/svg"><title>instagram</title><g transform="translate(.86 .38)"><path d="M12.47 0h-6.8C2.539 0 0 2.51 0 5.603v6.725c0 3.094 2.538 5.603 5.669 5.603h6.802c3.13 0 5.669-2.51 5.669-5.603V5.603C18.14 2.51 15.6 0 12.47 0zm3.969 12.328c0 2.163-1.78 3.922-3.968 3.922H5.669c-2.188 0-3.968-1.76-3.968-3.922V5.603c0-2.162 1.78-3.922 3.968-3.922h6.802c2.188 0 3.968 1.76 3.968 3.922v6.725z"/><path d="M9.07 4.483c-2.505 0-4.535 2.007-4.535 4.483 0 2.475 2.03 4.482 4.535 4.482 2.504 0 4.535-2.007 4.535-4.482 0-2.476-2.03-4.483-4.535-4.483zm0 7.284c-1.563 0-2.835-1.257-2.835-2.801 0-1.546 1.272-2.802 2.835-2.802 1.562 0 2.834 1.256 2.834 2.802 0 1.544-1.272 2.801-2.834 2.801z"/><ellipse cx="13.945" cy="4.147" rx="1" ry="1"/></g></svg>