<svg width="15" height="14" viewBox="0 0 15 14" xmlns="http://www.w3.org/2000/svg"><title>Shape</title><path d="M12.2 3.578c1.616.42 2.797 1.942 2.8 3.652a3.77 3.77 0 0 1-1.006 2.56 3.707 3.707 0 0 1-2.473 1.207H9.2a.412.412 0 1 1 0-.823h2.273c1.487-.113 2.693-1.43 2.693-2.944 0-1.43-1.036-2.682-2.409-2.914a.413.413 0 0 1-.345-.366C11.24 2.164 9.738.817 7.918.817c-1.354 0-2.6.78-3.177 1.99a.42.42 0 0 1-.521.21 1.535 1.535 0 0 0-.528-.091c-.851 0-1.545.686-1.545 1.527 0 .186.03.36.092.524a.413.413 0 0 1-.182.5A2.438 2.438 0 0 0 .833 7.58c0 1.335 1.06 2.52 2.322 2.597h2.64a.412.412 0 1 1 0 .823H3.119c-.839-.046-1.625-.439-2.22-1.103A3.473 3.473 0 0 1 0 7.583c0-1.045.515-2.027 1.363-2.636a2.54 2.54 0 0 1-.049-.488c0-1.295 1.067-2.35 2.378-2.35.154 0 .309.015.457.043A4.297 4.297 0 0 1 5.559.686 4.37 4.37 0 0 1 7.914 0C9 0 10.043.4 10.845 1.125A4.264 4.264 0 0 1 12.2 3.578zm-1.34 4.436a.507.507 0 0 1-.671 0L8.477 6.469v7.1c0 .24-.212.431-.477.431s-.477-.191-.477-.43V6.469L5.811 8.014a.507.507 0 0 1-.67 0 .4.4 0 0 1 0-.609l2.524-2.278a.51.51 0 0 1 .67 0l2.525 2.278a.4.4 0 0 1 0 .609z"/></svg>