<svg width="21" height="15" viewBox="0 0 21 15" xmlns="http://www.w3.org/2000/svg"><title>youtube</title><path d="M20.064 1.465C19.496.448 18.88.26 17.626.19 16.372.105 13.22.07 10.49.07c-2.735 0-5.888.036-7.14.12C2.1.26 1.481.447.91 1.465.324 2.48.023 4.228.023 7.306v.011c0 3.065.301 4.827.886 5.831.573 1.017 1.189 1.201 2.44 1.287 1.254.073 4.407.117 7.142.117 2.73 0 5.881-.044 7.136-.116 1.254-.086 1.87-.27 2.438-1.286.59-1.005.888-2.767.888-5.832v-.01c0-3.08-.298-4.828-.889-5.843zM7.872 11.26v-7.9l6.54 3.95-6.54 3.95z"/></svg>