<svg xmlns="http://www.w3.org/2000/svg" width="69" height="31"><g fill="none" fill-rule="evenodd"><path fill="#A3272C" d="M24.18 21.78l-2.842 1.64-10.669-6.15-2.7 1.556 10.67 6.149-2.86 1.648-10.669-6.15-2.25 1.298v-3.296L21.312 7.84l2.86 1.648-10.645 6.135 10.653 6.14v.019zM2.86 12.069l12.895-7.433 2.859 1.648-15.755 9.08v-3.295zm23.465-4.636L14.235.464a1.431 1.431 0 0 0-1.43 0L.715 7.432A1.427 1.427 0 0 0 0 8.668v13.937c0 .51.273.98.715 1.235l12.09 6.969a1.432 1.432 0 0 0 1.43 0l12.09-6.969a1.426 1.426 0 0 0 .715-1.235V8.668c0-.51-.272-.981-.715-1.236z"/><path fill="#2C2425" d="M35.495 22.143H33.92v-9.35h-1.576v-1.558h1.576V9.677c0-.422.146-.787.442-1.095.312-.308.69-.463 1.132-.463h4.8c.427 0 .796.155 1.108.463.311.308.886 1.12 1.723 2.434h-1.748a21.037 21.037 0 0 1-.246-.45 3.224 3.224 0 0 0-.27-.426 1.47 1.47 0 0 0-.346-.329.856.856 0 0 0-.492-.134h-4.529v1.558h1.822v1.559h-1.822v9.349z"/><path fill="#2C2425" d="M42.648 22.143h-1.507V20.56h-2.26a1.48 1.48 0 0 1-1.082-.445 1.634 1.634 0 0 1-.424-1.137v-3.163c0-.428.141-.798.424-1.112.298-.312.66-.47 1.083-.47h1.506v1.582h-1.506v3.163h2.26v-6.326h-3.767V11.07h10.781v1.582h-5.508v1.582h2.26c.408 0 .76.157 1.06.47.297.313.446.683.446 1.111v3.163c0 .445-.149.824-.446 1.137a1.455 1.455 0 0 1-1.06.445h-1.506v-1.58h1.506v-3.163h-2.26v6.327zm6.892 0a1.3 1.3 0 0 1-.994-.445c-.26-.313-.39-.692-.39-1.137v-6.326h1.384v1.582h1.383v-3.164h-2.767v-1.582h5.75v1.582h-1.599v3.163c0 .445-.138.825-.41 1.137-.275.297-.6.445-.974.445H49.54v3.163h2.767v1.582H49.54z"/><path fill="#2C2425" d="M55.235 22.143h-1.337v-9.49h-.71v-1.582h3.593v1.582h-1.546z"/><path fill="#2C2425" d="M58.3 17.991h1.517v-1.582h-1.518v1.582zm6.07 4.152h-1.518v-5.734h-1.517v1.582c0 .445-.151.824-.45 1.137a1.47 1.47 0 0 1-1.068.445h-1.518c-.426 0-.79-.149-1.09-.445a1.627 1.627 0 0 1-.428-1.137V16.41a1.6 1.6 0 0 1 .428-1.112c.3-.312.664-.469 1.09-.469h4.553v-2.175h-6.07v-1.581h9.343v1.58H64.37v9.49z"/><path fill="#2C2425" d="M67.454 22.143h-1.337v-9.49h-.71v-1.582H69v1.582h-1.546z"/></g></svg>